<svg id="Layer_1" data-name="Layer 1" xmlns="http://www.w3.org/2000/svg" viewBox="0 0 238.84 60.43">
  <defs>
    <style>
      .cls-1 {
        fill: #1ab6ff;
      }

      .cls-2 {
        fill: #050833;
      }

      .cls-3 {
        fill: #4576ff;
      }
    </style>
  </defs>
  <g>
    <path class="cls-2" d="M79.67,11.9v-5.91h0c-4.65,0-8.42,3.77-8.42,8.42v32.29s0,0,0,0c4.65,0,8.42-3.77,8.42-8.42v-13.01c0-4.14.85-7.04,2.55-8.72,1.7-1.67,4.2-2.51,7.5-2.51h2.14V5.32c-2.81,0-5.24.58-7.27,1.73-2.04,1.16-3.69,2.77-4.92,4.84Z"/>
    <path class="cls-2" d="M121.87,7.84c-3.01-1.68-6.43-2.51-10.27-2.51s-7.53.86-10.6,2.59c-3.08,1.73-5.47,4.17-7.17,7.35-1.7,3.18-2.55,6.86-2.55,11.05s.87,7.86,2.62,11.04c1.75,3.17,4.16,5.64,7.24,7.38,3.08,1.75,6.56,2.63,10.45,2.63,4.77,0,8.78-1.2,12.01-3.58,3.22-2.39,5.45-5.46,6.69-9.2h-9.09c-.48.98-1.06,1.84-1.72,2.56-1.9,2.08-4.53,3.12-7.88,3.12-3.15,0-5.81-.99-7.98-2.96-2.17-1.97-3.37-4.58-3.62-7.83h28.82c1.42,0,2.57-1.16,2.58-2.57v-1.56c0-3.94-.83-7.42-2.51-10.45-1.67-3.03-4.02-5.38-7.02-7.05ZM100.08,22.68c.39-3.15,1.62-5.65,3.69-7.5,2.07-1.85,4.56-2.77,7.46-2.77,3.2,0,5.89.94,8.06,2.81,2.16,1.88,3.28,4.36,3.32,7.46h-22.53Z"/>
    <path class="cls-2" d="M136.96.31v5.68h0c-2.65,0-4.8,2.15-4.8,4.8v2.07s4.8,0,4.8,0v22.53c0,3.99,1.01,6.87,3.03,8.65,2.01,1.77,4.92,2.66,8.72,2.66h6.64v-4.44c0-1.42-1.15-2.58-2.58-2.58h-2.6c-1.73,0-2.94-.34-3.66-1-.72-.67-1.07-1.76-1.07-3.29V12.86h7.32c1.42,0,2.58-1.15,2.58-2.58v-4.3h-9.9c0-3.13-2.54-5.68-5.68-5.68"/>
    <path class="cls-2" d="M179.14,31.49l-10.77-23.99c-.42-.93-1.34-1.52-2.35-1.52h-7.71l16.03,34.52-4.91,11.76c-1.6,3.82,1.21,8.04,5.36,8.04h0l24.97-54.32h-7.08c-1,0-1.91.58-2.33,1.49l-11.2,24.02Z"/>
    <path class="cls-2" d="M236.7,13.23c-1.42-2.62-3.41-4.58-5.95-5.92-2.54-1.33-5.4-1.99-8.6-1.99-2.42,0-4.7.47-6.84,1.4-2.14.94-3.9,2.24-5.28,3.91v-4.65h0c-4.65,0-8.42,3.77-8.42,8.42v23.87c0,4.65,3.77,8.42,8.42,8.42h0v-22.76c0-3.64.93-6.44,2.77-8.38,1.85-1.95,4.35-2.92,7.5-2.92s5.64.97,7.47,2.92c1.82,1.94,2.73,4.74,2.73,8.38v22.76h0c4.61,0,8.35-3.74,8.35-8.35v-15.66c0-3.69-.72-6.84-2.15-9.45Z"/>
  </g>
  <path class="cls-3" d="M36.21,0C22.86,0,12.04,10.82,12.04,24.17c0,3.9.94,7.56,2.58,10.82.42-.64.68-1.39.71-2.21.14-3,1.42-5.95,3.84-8.15.28-.25.57-.49.87-.71,4.46-3.33,10.93-3.04,15.06.83,4.86,4.55,4.95,12.2.28,16.87-.28.28-.57.54-.87.78-2.06,1.7-4.56,2.58-7.08,2.66-.77.02-1.49.28-2.1.68,3.27,1.66,6.97,2.61,10.89,2.61,13.35,0,24.17-10.82,24.17-24.17S49.57,0,36.21,0Z"/>
  <path class="cls-1" d="M25.31,45.73c-4.61-2.34-8.35-6.09-10.68-10.71,0,0,0-.02-.01-.03-.74,1.14-1.99,1.9-3.46,1.97-3.02.14-6,1.43-8.2,3.89-4.03,4.48-3.93,11.55.22,15.92,4.56,4.8,12.16,4.87,16.82.21,2.19-2.19,3.34-5.04,3.43-7.92.04-1.39.8-2.61,1.9-3.33,0,0-.01,0-.02,0Z"/>
</svg>